<svg width="31" height="31" viewBox="0 0 31 31" fill="none" xmlns="http://www.w3.org/2000/svg">
<path d="M15.4627 30.6752C6.92537 30.6752 0 23.7992 0 15.3524C0 6.87598 6.92537 0 15.4627 0C23.9701 0 30.9254 6.87598 30.9254 15.3524C30.8955 23.7992 23.9701 30.6752 15.4627 30.6752ZM15.4627 0.237103C7.07463 0.237103 0.238806 7.02417 0.238806 15.3524C0.238806 23.6806 7.04478 30.4381 15.4328 30.4381C23.8209 30.4381 30.6269 23.6806 30.6269 15.3524C30.6269 7.02417 23.8209 0.237103 15.4627 0.237103Z" fill="url(#paint0_linear_3385_53094)"/>
<path d="M17.8507 16.2712C18.3881 16.123 18.8955 15.9155 19.4328 15.6191C20.0896 15.2338 20.6567 14.7596 21.1642 14.1965C21.6716 13.6334 22.0896 12.9814 22.3881 12.2997C22.7164 11.5884 22.8657 10.8771 22.8657 10.1361C22.8657 9.83976 22.7164 9.39519 22.4478 8.80244C22.1791 8.20968 21.791 7.64656 21.2836 7.08344C20.1493 5.80902 18.5373 4.94952 16.8657 4.80133C15.6716 4.68278 14.3284 4.80133 13.1642 5.06807C12.1194 5.30517 11.1045 5.77938 10.1791 6.31286C9.58209 6.63888 9.07463 7.0538 8.59701 7.52801C7.82089 8.26896 6.80597 9.09882 7.01493 10.2843C7.13433 10.9364 7.58209 11.4995 8.02985 11.9737C8.23881 12.1812 8.50746 12.5664 8.83582 12.4775C9.31343 12.3293 9.16418 11.3809 9.10448 11.0253C8.95522 9.95831 8.71642 9.30628 9.55224 8.50606C9.8806 8.20968 12.9552 6.28322 12.9851 7.49837C12.9851 7.61692 12.9552 7.73548 12.8955 7.85403C12.7164 8.35787 12.6269 8.86171 12.5373 9.36556C12.4179 10.1361 12.2985 10.966 12.209 11.8848C12.1194 12.7739 12.0597 13.7223 12.0299 14.7004C11.9701 15.6784 11.9403 16.6268 11.9403 17.5456C11.9104 18.4644 11.9104 19.3239 11.9104 20.1241V22.5248C11.9104 23.1175 11.9104 23.5917 11.9403 24.0066C11.9701 24.3919 12 24.718 12.0597 24.9551C12.1194 25.1922 12.209 25.37 12.3284 25.4589C12.4478 25.5774 12.597 25.6071 12.7761 25.6071H13.2537C13.4925 25.6071 13.7313 25.6071 14 25.5775C14.2687 25.5478 14.5075 25.4885 14.7761 25.4293C15.0149 25.37 15.194 25.2811 15.3134 25.1625C15.0746 25.0736 14.9254 24.9551 14.8955 24.7772C14.8657 24.5994 14.8358 24.4809 14.8358 24.3919V18.6126C14.8358 17.9902 14.8657 17.5752 14.8955 17.427C14.8955 17.2196 15.3731 17.2492 15.4925 17.2492C15.9104 17.2492 16.3284 17.2196 16.7463 17.3085C16.8955 17.3381 17.194 17.3678 17.3134 17.4567C17.4925 17.5752 17.5522 17.7531 17.6418 17.9309C17.7612 18.1976 17.8507 18.4644 17.9104 18.7607C18.0299 19.2646 18.0597 19.7981 18.0896 20.3019C18.1791 21.1614 18.2985 22.258 18.4776 23.6214C18.5672 24.3327 18.806 24.8661 19.194 25.1329C19.5821 25.4293 20.0597 25.5775 20.7164 25.5775C21.3731 25.5775 21.8806 25.4293 22.2687 25.1625C22.6567 24.8661 22.8657 24.5401 22.8657 24.1252C22.8657 24.0363 22.8657 23.977 22.8657 23.9474C22.8657 23.8881 22.8358 23.8585 22.8358 23.7992C22.7164 24.0066 22.5672 24.1548 22.4478 24.2438C22.3284 24.3327 22.1791 24.3623 21.9701 24.3623C21.791 24.3623 21.6418 24.2437 21.5224 23.977C21.403 23.7399 21.3433 23.4139 21.2836 22.999C21.2239 22.6137 21.194 22.1395 21.1642 21.6653C21.1343 21.1614 21.1045 20.6872 21.0448 20.1834C20.9851 19.6795 20.9254 19.235 20.806 18.7904C20.6866 18.3458 20.5373 17.9902 20.3582 17.7234C19.8806 17.0714 19.0746 16.6861 18.3284 16.449M15.7612 15.3524C15.3731 15.3524 15.1343 15.3228 15.0448 15.2338C14.9552 15.1449 14.9254 14.9967 14.9254 14.73V8.12077C14.9254 7.61692 14.9851 7.26127 15.0746 7.0538C15.194 6.84634 15.3134 6.72779 15.4925 6.69815C15.8806 6.66851 16.1194 6.66851 16.2388 6.66851H16.5075C17.7015 6.66851 18.6866 6.90562 19.4627 7.40946C20.209 7.9133 20.597 8.62461 20.597 9.60266C20.597 10.1065 20.4776 10.6993 20.209 11.3809C19.9403 12.033 19.5821 12.685 19.1343 13.2778C18.6866 13.8705 18.1791 14.3744 17.6119 14.7893C17.0149 15.1449 16.3881 15.3524 15.7612 15.3524Z" fill="url(#paint1_linear_3385_53094)"/>
<path d="M4.65672 19.8573C3.9403 18.2865 3.8209 16.6861 4.35821 15.0857C4.44776 14.8486 4.62687 14.7596 4.80597 14.8189C5.01493 14.8782 5.10448 15.0857 5.01493 15.3228C4.62687 16.4786 4.59701 17.6345 4.95522 18.7607C5.46269 20.3612 6.50746 21.5171 8.02985 22.2284C8.14925 22.2877 8.26866 22.3173 8.41791 22.3766C8.62687 22.4655 8.74627 22.6433 8.65672 22.8508C8.59701 23.0286 8.38806 23.1175 8.1791 23.0286C6.77612 22.5248 5.67164 21.6356 4.92537 20.3612C4.80597 20.1834 4.71642 20.0055 4.65672 19.8573Z" fill="url(#paint2_linear_3385_53094)"/>
<path d="M8.26866 23.2064C8.20895 23.2064 8.1791 23.1768 8.1194 23.1768C6.68657 22.6433 5.55224 21.7245 4.77612 20.4501C4.71642 20.3316 4.62687 20.213 4.56716 20.0945L4.47761 19.9463C3.73134 18.3162 3.61194 16.7157 4.1791 15.056C4.23881 14.9078 4.32836 14.7893 4.41791 14.73C4.53731 14.6707 4.68657 14.6411 4.83582 14.7004C4.95522 14.73 5.07463 14.8189 5.13433 14.9375C5.19403 15.056 5.19403 15.2338 5.13433 15.382C4.74627 16.5083 4.71642 17.6345 5.07463 18.7311C5.58209 20.2723 6.56716 21.4282 8.0597 22.1098C8.14925 22.1395 8.26866 22.1987 8.35821 22.2284L8.41791 22.258C8.71642 22.3766 8.86567 22.6433 8.74627 22.91C8.74627 23.1175 8.50746 23.2361 8.26866 23.2064ZM4.77612 19.7981L4.83582 19.9166C4.89552 20.0352 4.95522 20.1537 5.04478 20.2723C5.79104 21.4874 6.86567 22.3766 8.23881 22.8804C8.35821 22.9397 8.47761 22.8804 8.50746 22.7915C8.56716 22.6137 8.41791 22.5544 8.35821 22.5248L8.29851 22.4951C8.1791 22.4655 8.08955 22.4062 7.97015 22.3766C6.38806 21.6653 5.31343 20.4501 4.80597 18.82C4.44776 17.6642 4.44776 16.4786 4.86567 15.2635C4.89552 15.1746 4.89552 15.1153 4.86567 15.056C4.83582 15.0264 4.80597 14.9967 4.74627 14.9671C4.68657 14.9375 4.65672 14.9671 4.59701 14.9671C4.53731 14.9967 4.50746 15.056 4.47761 15.1153C3.97015 16.7157 4.0597 18.2273 4.77612 19.7981Z" fill="url(#paint3_linear_3385_53094)"/>
<path d="M5.8806 19.2053C5.40299 18.1976 5.34328 17.0418 5.73134 15.8859C5.8209 15.6784 6 15.5599 6.1791 15.6191C6.38806 15.6784 6.44776 15.8859 6.38806 16.0933C6.08955 16.9528 6.08955 17.7827 6.38806 18.6422C6.77612 19.7388 7.52239 20.4797 8.62686 20.9243C8.68657 20.954 8.71642 20.954 8.77612 20.9836C8.95522 21.0725 9.04478 21.2503 8.95522 21.4282C8.89552 21.606 8.68657 21.6949 8.50746 21.6356C7.85075 21.3985 7.28358 21.0429 6.77612 20.539C6.41791 20.1834 6.14925 19.7684 5.8806 19.2053Z" fill="url(#paint4_linear_3385_53094)"/>
<path d="M8.59701 21.7838C8.56716 21.7838 8.50746 21.7838 8.47761 21.7542C7.79104 21.5171 7.19403 21.1318 6.68657 20.6279C6.29851 20.2426 6 19.8277 5.73134 19.235C5.22388 18.168 5.19403 16.9528 5.58209 15.797C5.64179 15.6488 5.73134 15.5302 5.85075 15.471C5.97015 15.4117 6.08955 15.4117 6.23881 15.4413C6.50746 15.5302 6.65672 15.8266 6.53731 16.123C6.26866 16.9528 6.26866 17.7827 6.53731 18.5533C6.92537 19.5906 7.64179 20.3316 8.68657 20.7465L8.74627 20.7761C8.77612 20.7761 8.80597 20.8058 8.86567 20.8058C9.10448 20.9243 9.22388 21.1911 9.13433 21.4578C9.01493 21.6949 8.80597 21.8134 8.59701 21.7838ZM6 19.146C6.26866 19.6795 6.53731 20.0945 6.89552 20.4501C7.37313 20.9243 7.9403 21.28 8.56716 21.4874C8.65672 21.5171 8.77612 21.4874 8.80597 21.3689C8.83582 21.28 8.80597 21.1614 8.68657 21.1318C8.65672 21.1318 8.62686 21.1021 8.59701 21.1021L8.53731 21.0725C7.40299 20.6279 6.62686 19.8277 6.20895 18.7015C5.8806 17.842 5.8806 16.9528 6.1791 16.0637C6.20896 16.0044 6.23881 15.8266 6.0597 15.7673C6 15.7377 5.97015 15.7377 5.91045 15.7673C5.85075 15.797 5.8209 15.8562 5.79104 15.9155C5.49254 17.0121 5.55224 18.1384 6 19.146Z" fill="url(#paint5_linear_3385_53094)"/>
<path d="M7.10448 18.6422C6.80597 17.9605 6.74627 17.2789 6.98507 16.5379C7.04478 16.3304 7.25373 16.2119 7.43284 16.2712C7.64179 16.3304 7.73134 16.5379 7.64179 16.7454C7.28358 17.842 7.82089 18.9682 8.89552 19.3831C9.10448 19.4721 9.22388 19.6499 9.13433 19.8573C9.07463 20.0352 8.86567 20.1241 8.62687 20.0352C7.9403 19.7981 7.43284 19.3239 7.10448 18.6422Z" fill="url(#paint6_linear_3385_53094)"/>
<path d="M8.74627 20.2426C8.68657 20.2426 8.65672 20.213 8.59701 20.213C7.8806 19.9463 7.31343 19.4424 6.95522 18.7311C6.62687 18.0198 6.56716 17.2492 6.80597 16.5379C6.89552 16.2415 7.19403 16.0933 7.46269 16.1823C7.73134 16.2712 7.8806 16.5676 7.79104 16.8639C7.46269 17.842 7.9403 18.8793 8.95522 19.2646C9.25373 19.3831 9.40298 19.6499 9.28358 19.9166C9.22388 20.1537 8.98507 20.2723 8.74627 20.2426ZM7.25373 18.5829C7.58209 19.2053 8.0597 19.6795 8.71642 19.9166C8.83582 19.9759 8.95522 19.9166 9.01493 19.8277C9.07463 19.7092 8.95522 19.5906 8.86567 19.561C7.70149 19.1164 7.13433 17.9309 7.49254 16.7157C7.52239 16.5676 7.49254 16.4786 7.37313 16.4194C7.25373 16.3897 7.16418 16.4786 7.10448 16.5972C6.89552 17.2789 6.95522 17.9309 7.25373 18.5829Z" fill="url(#paint7_linear_3385_53094)"/>
<path d="M8.26866 18.1087C8.14925 17.8716 8.1194 17.6049 8.20895 17.3381C8.26866 17.1603 8.44776 17.0418 8.62687 17.101C8.80597 17.1603 8.92537 17.3381 8.86567 17.5456C8.80597 17.7827 8.86567 17.9013 9.07463 18.0198C9.25373 18.1087 9.34328 18.3162 9.25373 18.494C9.16418 18.6718 8.98507 18.7607 8.77612 18.6718C8.59701 18.5533 8.38806 18.3755 8.26866 18.1087Z" fill="url(#paint8_linear_3385_53094)"/>
<path d="M8.92537 18.82C8.86567 18.82 8.83582 18.7904 8.77612 18.7904C8.47761 18.6718 8.26866 18.4644 8.1194 18.1976C8 17.9013 7.97015 17.6049 8.0597 17.3085C8.14925 17.0418 8.41791 16.8936 8.68657 16.9528C8.95522 17.0418 9.10448 17.3085 9.04478 17.5752C9.01493 17.7234 9.04478 17.7827 9.16418 17.8716C9.43284 17.9902 9.55224 18.2865 9.43284 18.5236C9.37313 18.7311 9.13433 18.8497 8.92537 18.82ZM8.41791 18.0494C8.53731 18.2569 8.68657 18.4051 8.89552 18.494C9.01493 18.5236 9.13433 18.494 9.16418 18.4051C9.19403 18.3162 9.16418 18.1976 9.04478 18.1384C8.77612 18.0198 8.65672 17.7827 8.74627 17.4863C8.77612 17.3678 8.71642 17.2789 8.62687 17.2492C8.53731 17.2196 8.41791 17.2789 8.38806 17.3974C8.29851 17.6049 8.32836 17.842 8.41791 18.0494Z" fill="url(#paint9_linear_3385_53094)"/>
<defs>
<linearGradient id="paint0_linear_3385_53094" x1="-2.40048e-07" y1="3.33426" x2="35.5744" y2="4.59684" gradientUnits="userSpaceOnUse">
<stop stop-color="#C84AD6"/>
<stop offset="1" stop-color="#6F3CE3"/>
</linearGradient>
<linearGradient id="paint1_linear_3385_53094" x1="-2.40048e-07" y1="3.33426" x2="35.5744" y2="4.59684" gradientUnits="userSpaceOnUse">
<stop stop-color="#C84AD6"/>
<stop offset="1" stop-color="#6F3CE3"/>
</linearGradient>
<linearGradient id="paint2_linear_3385_53094" x1="-2.40048e-07" y1="3.33426" x2="35.5744" y2="4.59684" gradientUnits="userSpaceOnUse">
<stop stop-color="#C84AD6"/>
<stop offset="1" stop-color="#6F3CE3"/>
</linearGradient>
<linearGradient id="paint3_linear_3385_53094" x1="-2.40048e-07" y1="3.33426" x2="35.5744" y2="4.59684" gradientUnits="userSpaceOnUse">
<stop stop-color="#C84AD6"/>
<stop offset="1" stop-color="#6F3CE3"/>
</linearGradient>
<linearGradient id="paint4_linear_3385_53094" x1="-2.40048e-07" y1="3.33426" x2="35.5744" y2="4.59684" gradientUnits="userSpaceOnUse">
<stop stop-color="#C84AD6"/>
<stop offset="1" stop-color="#6F3CE3"/>
</linearGradient>
<linearGradient id="paint5_linear_3385_53094" x1="-2.40048e-07" y1="3.33426" x2="35.5744" y2="4.59684" gradientUnits="userSpaceOnUse">
<stop stop-color="#C84AD6"/>
<stop offset="1" stop-color="#6F3CE3"/>
</linearGradient>
<linearGradient id="paint6_linear_3385_53094" x1="-2.40048e-07" y1="3.33426" x2="35.5744" y2="4.59684" gradientUnits="userSpaceOnUse">
<stop stop-color="#C84AD6"/>
<stop offset="1" stop-color="#6F3CE3"/>
</linearGradient>
<linearGradient id="paint7_linear_3385_53094" x1="-2.40048e-07" y1="3.33426" x2="35.5744" y2="4.59684" gradientUnits="userSpaceOnUse">
<stop stop-color="#C84AD6"/>
<stop offset="1" stop-color="#6F3CE3"/>
</linearGradient>
<linearGradient id="paint8_linear_3385_53094" x1="-2.40048e-07" y1="3.33426" x2="35.5744" y2="4.59684" gradientUnits="userSpaceOnUse">
<stop stop-color="#C84AD6"/>
<stop offset="1" stop-color="#6F3CE3"/>
</linearGradient>
<linearGradient id="paint9_linear_3385_53094" x1="-2.40048e-07" y1="3.33426" x2="35.5744" y2="4.59684" gradientUnits="userSpaceOnUse">
<stop stop-color="#C84AD6"/>
<stop offset="1" stop-color="#6F3CE3"/>
</linearGradient>
</defs>
</svg>
