<?xml version="1.0" encoding="UTF-8"?>
<svg id="Layer_2" data-name="Layer 2" xmlns="http://www.w3.org/2000/svg" viewBox="0 0 837.46 139.13">
  <defs>
    <style>
      .cls-1 {
        fill: #141414;
        stroke-width: 0px;
      }
    </style>
  </defs>
  <g id="Layer_1-2" data-name="Layer 1">
    <path class="cls-1" d="M145.63,139.13c-12.06,0-20.71-5.71-25.96-17.11-2.63-5.81-3.94-12.34-3.94-19.58,0-17.66,5.91-32.58,17.72-44.76,5.61-5.7,11.93-10.09,18.98-13.17,3.58-1.54,7.64-2.3,12.17-2.3,8.71.11,13.94,2.94,15.68,8.49.05.15.13.28.25.39,4.18,3.62,6.26,9.11,6.26,16.46,0,11.63-5.55,20.73-16.65,27.32-3.58,1.97-9.91,4.83-18.98,8.56-.96.44-2.45,1.1-4.48,1.97-3.97,1.68-7.17,2.87-9.6,3.57-.44.13-.72.59-.63,1.04,1.56,8.01,5.75,12.07,12.56,12.18,9.43,0,19.16-3.73,29.18-11.19.24-.11.42-.22.54-.33l.36.16c-2.51,7.35-4.3,11.85-5.37,13.49-3.45,5.14-9.5,9.61-18.14,13.44-.08.03-.16.06-.24.07-5.65.86-8.89,1.3-9.72,1.3ZM165.14,62.28c-.96.11-2.63.71-5.01,1.81-9.19,4.5-15.99,11.46-20.41,20.9-2.29,5.01-3.58,10.06-3.88,15.16-.04.67.67,1.14,1.28.86,6.22-2.83,10.67-5.37,13.34-7.63,4.53-3.84,8.23-9.76,11.1-17.77.36-.99.72-2.08,1.07-3.29"/>
    <path class="cls-1" d="M238.72,63.04v-.33c1.31.33,3.22.71,5.73,1.15,5.73,1.21,9.85,2.36,12.35,3.46.48.22.54,1.21.18,2.96-.12.33-.18.55-.18.66v7.57c-.12,1.65-.18,2.85-.18,3.62,0,15.47,1.25,26.06,3.76,31.76.48,1.1,1.01,2.08,1.61,2.96,2.03-3.07,4.65-7.57,7.88-13.49,4.06-10.09,6.09-21.01,6.09-32.75,0-9.76-1.43-18.76-4.3-26.99-.48-1.32-.72-2.19-.72-2.63,0-.88.77-2.91,2.33-6.09l1.19-1.78c.6-.44.48-.79,1.68-1.67,1.07-.88,1.91-1.54,2.51-1.98,3.7,1.54,6.27,3.07,7.7,4.61,5.01,5.49,7.52,15.74,7.52,30.77v1.81c0,19.75-3.46,36.64-10.38,50.69-6.44,12.51-13.96,18.81-22.56,18.92-2.51,0-5.43-.93-8.77-2.8-.72-.44-1.31-.77-1.79-.99-.36-.33-.9-.88-1.61-1.65-1.31-1.53-2.27-2.69-2.86-3.46-4.06-6.03-6.62-15.3-7.7-27.81-7.64,14.7-12.41,23.75-14.32,27.15-2.98,2.74-5.07,4.39-6.27,4.94-1.19.44-2.51.66-3.94.66-9.79,0-14.98-10.31-15.58-30.94-.12-2.19-.18-4.72-.18-7.57v-6.75c0-11.96.42-22.16,1.25-30.61.36-3.84.9-6.58,1.61-8.23h.18l20.23,1.32c.12.77.18,1.76.18,2.96,0,.33-.12,1.54-.36,3.62-.24,1.43-.36,2.25-.36,2.47-2.15,17.01-3.22,32.2-3.22,45.58v5.76c0,3.73.3,6.75.9,9.05,9.31-7.46,15.63-20.02,18.98-37.68"/>
    <path class="cls-1" d="M361.96,47.57l16.11,4.77c.48.55.72,1.37.72,2.47,0,1.21-.6,4.44-1.79,9.71-1.19,6.58-2.15,19.09-2.86,37.52-.24,6.69-.6,12.29-1.07,16.79-.36,3.07-1.79,5.92-4.3,8.56l-.9.82-.54.17c-.6-.11-1.49-.33-2.69-.66-1.19-.22-2.09-.38-2.69-.49-4.77-3.95-7.34-11.85-7.7-23.7v-2.3c-4.3,12.07-10.68,21.78-19.16,29.13-3.94,2.08-6.69,3.23-8.23,3.46-.84.11-1.67.16-2.51.16-11.7,0-18.8-7.9-21.3-23.7-.48-3.62-.72-7.35-.72-11.19,0-15.47,4.48-29.95,13.43-43.44,1.31-1.98,2.62-3.79,3.94-5.43,5.01-5.92,10.92-9.22,17.72-9.87.83-.11,1.55-.16,2.15-.16,8.35,0,14.14,4.77,17.37,14.32.36,1.21.65,2.36.9,3.46,1.31-5.48,2.51-8.83,3.58-10.04.24-.11.42-.22.54-.33ZM338.51,61.88c-6.69,6.69-11.28,15.53-13.78,26.49-.96,4.06-1.43,8.01-1.43,11.85,0,5.71,1.49,11.74,4.48,18.1.24-.22,1.01-.49,2.33-.82.6-.22,1.01-.38,1.25-.49,9.06-5.59,15.79-14.1,19.11-24.89,0,0,0-.02,0-.02l1-1.99.3-2.56c.48-1.98.72-4.28.72-6.91-.72-9.22-3.7-15.91-8.95-20.08-.72-.55-1.43-1.04-2.15-1.48"/>
    <path class="cls-1" d="M440.55,66.99c-2.87-.44-5.55-2.25-8.06-5.43-9.79,12.07-16.47,26.6-20.05,43.61-.36,1.76-.66,3.51-.9,5.27-.36,2.63-.66,6.64-.9,12.01-.24,3.29-.42,5.71-.54,7.24v.33c-.24,3.73-1.43,5.65-3.58,5.76-.84,0-2.69-.17-5.55-.49-2.63-.22-4.72-.39-6.27-.49-.96-.11-2.45-23.15-4.48-69.12-.12-1.75-.18-2.85-.18-3.29v-.82c-.12-.88-.18-1.48-.18-1.81.12-1.32.42-2.08.9-2.3l18.8-5.1c1.91,2.09,2.87,6.31,2.87,12.67v6.91c.12,1.32.18,2.3.18,2.96v2.47c4.06-15.47,7.82-26.17,11.28-32.09.48-.88.95-1.7,1.43-2.47,2.98-2.74,5.01-4.39,6.09-4.94,1.55-.66,3.28-.99,5.19-.99,7.04,0,11.75,3.4,14.14,10.2.83,2.41,1.25,4.99,1.25,7.73,0,5.16-2.15,8.67-6.45,10.53-1.43.55-3.1,1.1-5.01,1.65Z"/>
    <path class="cls-1" d="M526.66,121.29c0,3.4-1.49,5.87-4.48,7.41-.48.22-.9.44-1.25.66h-.89c-.48-.11-.84-.17-1.07-.17h-.36c-6.69-.11-10.03-8.78-10.03-26v-1.32c-4.3,11.74-10.62,21.23-18.98,28.47-3.94,2.08-6.68,3.23-8.23,3.46-.84.11-1.67.16-2.51.16-11.7,0-18.8-7.9-21.3-23.7-.48-3.62-.72-7.35-.72-11.19,0-15.25,4.24-29.46,12.71-42.62,1.55-2.3,3.1-4.39,4.65-6.25,5.01-5.92,10.92-9.22,17.72-9.87.83-.11,1.55-.16,2.15-.16,7.64.11,13.13,4.28,16.47,12.51,1.19-14.37,2.03-22.98,2.51-25.84.48-2.41,1.01-4.66,1.61-6.75.83-3.62,1.79-5.87,2.86-6.75.6-.44,1.31-.77,2.15-.99h10.74c1.91,1.76,2.86,4.83,2.86,9.22,0,4.06-1.19,11.91-3.58,23.53-.72,3.73-1.19,6.8-1.43,9.22-1.43,14.37-2.15,28.74-2.15,43.12v12.34c0,1.32.12,3.24.36,5.76.12,2.53.18,4.44.18,5.76ZM506.25,87.56c.48-2.41.72-4.33.72-5.76,0-7.79-2.33-14.26-6.98-19.42-1.31-1.42-2.69-2.52-4.12-3.29-1.55-.88,1.42-.74.59.03.05.45-2.02-.21-2.92,1.45-.08.55-.08-.43-1.05,1.49-.02.04-.05.08-.08.11-6.66,6.69-10.69,15.27-13.19,26.22-.96,4.06-1.43,8.01-1.43,11.85,0,5.71,1.49,11.74,4.48,18.1.24-.22,1.01-.49,2.33-.82.6-.22,1.01-.38,1.25-.49,8.95-5.6,13.41-14.38,19.61-25.9"/>
    <path class="cls-1" d="M754.38,121.29c0,3.4-1.49,5.87-4.48,7.41-.48.22-.9.44-1.25.66h-1.07c-.36-.11-.66-.17-.9-.17h-.36c-6.45,0-9.73-8.06-9.85-24.19v-4.77c0-34.01,2.03-62.97,6.09-86.89.83-3.62,1.61-5.76,2.33-6.42.72-.66,1.55-1.1,2.51-1.32h10.92c1.91,1.76,2.86,4.83,2.86,9.22,0,5.27-1.25,15.3-3.76,30.11-.6,3.73-1.07,6.86-1.43,9.38-1.43,14.37-2.15,28.74-2.15,43.12v12.34c0,1.32.06,3.24.18,5.76.24,2.53.36,4.44.36,5.76Z"/>
    <path class="cls-1" d="M710.16,50.24l16.11,4.77c.48.55.72,1.37.72,2.47,0,1.21-.6,4.44-1.79,9.71-1.19,6.58-2.15,19.09-2.86,37.52-.24,6.69-.6,12.29-1.07,16.79-.36,3.07-1.79,5.92-4.3,8.56l-.9.82-.54.17c-.6-.11-1.49-.33-2.69-.66-1.19-.22-2.09-.38-2.69-.49-4.77-3.95-7.34-11.85-7.7-23.7v-2.3c-4.3,12.07-10.68,21.78-19.16,29.13-3.94,2.08-6.69,3.23-8.23,3.46-.84.11-1.67.16-2.51.16-11.7,0-18.8-7.9-21.3-23.7-.48-3.62-.72-7.35-.72-11.19,0-15.47,4.48-29.95,13.43-43.44,1.31-1.98,2.62-3.79,3.94-5.43,5.01-5.92,10.92-9.22,17.72-9.87.83-.11,1.55-.16,2.15-.16,8.35,0,14.14,4.77,17.37,14.32.36,1.21.65,2.36.9,3.46,1.31-5.48,2.51-8.83,3.58-10.04.24-.11.42-.22.54-.33ZM686.71,64.56c-6.69,6.69-11.28,15.53-13.78,26.49-.96,4.06-1.43,8.01-1.43,11.85,0,5.71,1.49,11.74,4.48,18.1.24-.22,1.01-.49,2.33-.82.6-.22,1.01-.38,1.25-.49,9.06-5.59,15.79-14.1,19.11-24.89,0,0,0-.02,0-.02l1-1.99.3-2.56c.48-1.98.72-4.28.72-6.91-.72-9.22-3.7-15.91-8.95-20.08-.72-.55-1.43-1.04-2.15-1.48"/>
    <path class="cls-1" d="M786.49,131.7c-7.08-2.37-12.47-7.58-16.17-15.62-2.63-5.81-3.94-12.34-3.94-19.58,0-17.66,5.91-32.58,17.72-44.76,5.61-5.7,11.93-10.09,18.98-13.17,3.58-1.54,7.64-2.3,12.17-2.3,8.71.11,13.94,2.94,15.68,8.49.05.15.13.28.25.39,4.18,3.62,6.26,9.11,6.26,16.46,0,11.63-5.55,20.73-16.65,27.32-3.58,1.97-9.91,4.83-18.98,8.56-.96.44-2.45,1.1-4.48,1.97-3.97,1.68-7.17,2.87-9.6,3.57-.44.13-.72.59-.63,1.04,1.56,8.01,5.75,12.07,12.56,12.18,9.43,0,19.16-3.73,29.18-11.19.24-.11.42-.22.54-.33l.36.16c-2.51,7.35-4.3,11.85-5.37,13.49-3.45,5.14-9.5,9.61-18.14,13.44-.08.03-.16.06-.24.07-5.65.86-8.89,1.3-9.72,1.3-3.56,0-6.82-.5-9.79-1.49M815.8,56.35c-.96.11-2.63.71-5.01,1.81-9.19,4.5-15.99,11.46-20.41,20.9-2.29,5.01-3.58,10.06-3.88,15.16-.04.67.67,1.14,1.28.86,6.22-2.83,10.67-5.37,13.34-7.63,4.53-3.84,8.23-9.76,11.1-17.77.36-.99.72-2.08,1.07-3.29"/>
    <g>
      <path class="cls-1" d="M36.17,8.7c-.9-.97-1.83-2.04-2.61-3.21-3.2,1.27-6.46,2.63-9.79,4.11-2.06.98-4.46,2.16-7.18,3.57-2.72,1.4-5.3,3-7.75,4.79-2.44,1.79-4.51,3.71-6.23,5.76C.91,25.78.04,27.94,0,30.21c-.02,1.26.32,2.81,1.02,4.66.7,1.84,1.73,3.63,3.09,5.36,1.36,1.73,2.98,3.18,4.86,4.34,1.88,1.17,4.06,1.78,6.54,1.82,1.46.03,2.34-.56,2.65-1.75.31-1.19.47-2.42.49-3.68,0-.5-.09-1.42-.29-2.75-.2-1.33-.4-2.72-.59-4.17-.2-1.46-.39-2.88-.59-4.27-.2-1.39-.29-2.34-.28-2.85.03-2.27,1.75-4.61,5.14-7.01,3.39-2.4,7.23-3.07,11.93-5.01,1.58-.65,3.09-1.12,5.16-1.14-.95-.95-2.06-4.06-2.97-5.05Z"/>
      <path class="cls-1" d="M106.68,62.03c3.93-3.71,7.14-7.88,9.62-12.5,2.48-4.62,3.76-9.39,3.84-14.31.03-2.01-.95-4.97-2.94-8.85-1.99-3.88-4.85-7.75-8.59-11.6-3.74-3.85-8.26-7.24-13.55-10.17C89.77,1.66,83.83.14,77.26.02c-10.38-.19-21.54.88-33.49,3.19-3.84.74-7.82,1.72-11.92,2.89.25.46.5.92.78,1.36.9.92,1.75,1.9,2.5,2.97.37.52.78,1.17,1.2,1.73.49.51,1,1.01,1.54,1.49.05.04.08.09.12.13,1.4-.14,2.7-.21,3.89-.18l1.53.03c.29,0,.65.3,1.08.87.43.58.79.99,1.08,1.25-1.51,3.38-2.82,7.62-3.92,12.71-1.1,5.09-1.99,10.63-2.66,16.62-.68,5.99-1.25,12.19-1.71,18.62-.46,6.43-.82,12.71-1.05,18.82-.24,6.12-.4,11.83-.48,17.13-.08,5.3-.15,9.84-.21,13.63-.06,3.92-.04,7.17.07,9.76.11,2.59.41,4.68.9,6.27.49,1.58,1.17,2.74,2.04,3.45.87.71,2.04,1.08,3.5,1.1.73.01,1.98.03,3.74.07,1.76.03,3.63-.03,5.61-.18,1.98-.15,3.93-.44,5.85-.84,1.91-.41,3.31-.98,4.21-1.73-1.81-.54-2.83-1.38-3.03-2.52-.21-1.14-.31-1.97-.3-2.47l.33-21.23c.08-5.31.15-10.05.22-14.22.06-4.17.25-6.82.56-7.96,0-.5.78-.81,2.33-.91,1.55-.1,2.69-.14,3.43-.13,3.82.07,6.68.69,8.58,1.86,1.89,1.17,3.33,3.35,4.31,6.52.98,3.18,1.71,7.62,2.21,13.31.49,5.7,1.33,13.05,2.51,22.04.65,4.81,2.39,8.23,5.21,10.24,2.81,2.01,6.63,3.06,11.45,3.14,4.96.09,8.95-.79,11.97-2.63,3.02-1.84,4.55-4.09,4.59-6.75,0-.51-.02-.92-.09-1.23-.07-.32-.17-.67-.31-1.05-1.04,1.37-2.01,2.33-2.89,2.89-.88.55-2.13.81-3.73.79-1.46-.03-2.58-.87-3.36-2.53-.78-1.66-1.36-3.82-1.76-6.48-.4-2.66-.68-5.64-.85-8.93-.17-3.29-.41-6.58-.72-9.87-.32-3.29-.85-6.4-1.61-9.32-.76-2.92-1.86-5.28-3.29-7.08-2.58-3.21-5.57-5.5-8.98-6.89-3.41-1.39-6.78-2.62-10.12-3.69,5.13-.66,10.19-2.24,15.2-4.74,5.01-2.49,9.48-5.6,13.41-9.31ZM79.28,65.39c-4.49,2.64-9.15,3.91-13.96,3.83-2.92-.05-4.7-.34-5.35-.85-.65-.52-.96-1.66-.93-3.43l.67-43.98c.05-3.28.49-5.65,1.31-7.09.82-1.44,1.89-2.21,3.21-2.31,2.92-.07,4.78-.1,5.58-.09.8.01,1.49.03,2.08.04,9.19.16,16.64,1.94,22.36,5.33,5.71,3.39,8.52,8.31,8.42,14.75-.05,3.41-1.14,7.31-3.24,11.7-2.11,4.39-4.88,8.51-8.29,12.37-3.42,3.86-7.37,7.11-11.86,9.74Z"/>
    </g>
    <path class="cls-1" d="M585.16,62.17v-.33c1.31.33,3.22.71,5.73,1.15,5.73,1.21,9.85,2.36,12.35,3.46.48.22.54,1.21.18,2.96-.12.33-.18.55-.18.66v7.57c-.12,1.65-.18,2.85-.18,3.62,0,15.47,1.25,26.06,3.76,31.76.48,1.1,1.01,2.08,1.61,2.96,2.03-3.07,4.65-7.57,7.88-13.49,4.06-10.09,6.09-21.01,6.09-32.75,0-9.76-1.43-18.76-4.3-26.99-.48-1.32-.72-2.19-.72-2.63,0-.88.77-2.91,2.33-6.09l1.19-1.78c.6-.44.48-.79,1.68-1.67,1.07-.88,1.91-1.54,2.51-1.98,3.7,1.54,6.27,3.07,7.7,4.61,5.01,5.49,7.52,15.74,7.52,30.77v1.81c0,19.75-3.46,36.64-10.38,50.69-6.44,12.51-13.96,18.81-22.56,18.92-2.51,0-5.43-.93-8.77-2.8-.72-.44-1.31-.77-1.79-.99-.36-.33-.9-.88-1.61-1.65-1.31-1.53-2.27-2.69-2.86-3.46-4.06-6.03-6.62-15.3-7.7-27.81-7.64,14.7-12.41,23.75-14.32,27.15-2.98,2.74-5.07,4.39-6.27,4.94-1.19.44-2.51.66-3.94.66-9.79,0-14.98-10.31-15.58-30.94-.12-2.19-.18-4.72-.18-7.57v-6.75c0-11.96.42-22.16,1.25-30.61.36-3.84.9-6.58,1.61-8.23h.18l20.23,1.32c.12.77.18,1.76.18,2.96,0,.33-.12,1.54-.36,3.62-.24,1.43-.36,2.25-.36,2.47-2.15,17.01-3.22,32.2-3.22,45.58v5.76c0,3.73.3,6.75.9,9.05,9.31-7.46,15.63-20.02,18.98-37.68"/>
  </g>
</svg>